<?xml version="1.0" encoding="utf-8"?>
<!-- Generator: Adobe Illustrator 24.1.2, SVG Export Plug-In . SVG Version: 6.00 Build 0)  -->
<svg version="1.1" id="Camada_1" xmlns="http://www.w3.org/2000/svg" xmlns:xlink="http://www.w3.org/1999/xlink" x="0px" y="0px"
	 viewBox="0 0 48 48" style="enable-background:new 0 0 48 48;" xml:space="preserve">
<style type="text/css">
	.st0{fill:#FFFFFF;}
</style>
<path class="st0" d="M21.9,48c-5.3-0.4-9.8-2.6-13.4-6.6S3,32.8,3,27.4C3,24.1,3.8,21,5.3,18s3.7-5.3,6.5-7.2l2.8,2.8
	c-2.4,1.4-4.3,3.4-5.6,5.9s-2,5.1-2,7.9c0,4.3,1.4,8.1,4.3,11.2c2.9,3.2,6.4,5,10.7,5.4V48z M25.8,48v-3.9c4.3-0.5,7.9-2.3,10.7-5.5
	c2.8-3.1,4.2-6.9,4.2-11.2c0-4.7-1.6-8.7-4.9-12c-3.3-3.3-7.3-4.9-12-4.9h-1.3l3.9,3.9l-2.8,2.8L15,8.6L23.6,0l2.8,2.8l-3.9,3.9h1.3
	c5.8,0,10.7,2,14.7,6.1s6,8.9,6,14.7c0,5.4-1.8,10.1-5.4,14S31.1,47.6,25.8,48z"/>
</svg>
