<?xml version="1.0" encoding="utf-8"?>
<!-- Generator: Adobe Illustrator 24.1.2, SVG Export Plug-In . SVG Version: 6.00 Build 0)  -->
<svg version="1.1" id="Camada_1" xmlns="http://www.w3.org/2000/svg" xmlns:xlink="http://www.w3.org/1999/xlink" x="0px" y="0px"
	 viewBox="0 0 48 48" style="enable-background:new 0 0 48 48;" xml:space="preserve">
<style type="text/css">
	.st0{fill:#FFFFFF;}
</style>
<path class="st0" d="M18.5,48l-1.2-7.6c-0.8-0.3-1.6-0.7-2.4-1.1c-0.8-0.5-1.6-1-2.2-1.5L5.6,41L0,31.2l6.5-4.7
	c-0.1-0.4-0.1-0.8-0.2-1.2c0-0.5,0-0.9,0-1.2c0-0.4,0-0.8,0-1.2c0-0.5,0.1-0.9,0.2-1.2L0,16.8L5.6,7l7.1,3.2c0.6-0.5,1.4-1,2.2-1.5
	c0.8-0.5,1.6-0.8,2.4-1.1L18.5,0h11l1.2,7.6c0.8,0.3,1.6,0.7,2.4,1.1c0.9,0.5,1.6,1,2.2,1.5L42.4,7l5.6,9.8l-6.5,4.6
	c0.1,0.4,0.1,0.8,0.2,1.3c0,0.5,0,0.9,0,1.3c0,0.4,0,0.8,0,1.3s-0.1,0.9-0.2,1.3l6.5,4.7L42.4,41l-7.1-3.2c-0.6,0.5-1.4,1-2.2,1.5
	c-0.8,0.5-1.6,0.9-2.4,1.1L29.5,48H18.5z M24,31.8c2.2,0,4-0.8,5.5-2.3c1.5-1.5,2.3-3.4,2.3-5.5s-0.8-4-2.3-5.5
	C28,17,26.2,16.2,24,16.2s-4,0.8-5.5,2.3C17,20,16.2,21.8,16.2,24s0.8,4,2.3,5.5C20,31,21.8,31.8,24,31.8z"/>
</svg>
